<svg viewBox="0 0 680 598" xmlns="http://www.w3.org/2000/svg" role="img" font-family="Arial, Helvetica, sans-serif">
<title>OptBridge Position Surface mockup with Horizon control</title>
<desc>A forward-only options P&amp;L heatmap for a SPY 565 call, 24 days to expiry, shown in the macro (full-life) timeframe with a dates axis. Includes iso-R profit contours, a live implied-volatility probability cone, a live spot marker, an expiry payoff strip, a Horizon toggle for micro/macro timeframes, a position rail with mixed DTEs, and a live greeks and risk row.</desc>
<defs>
<linearGradient id="valueGrad" x1="0" y1="0" x2="0" y2="1">
<stop offset="0%" stop-color="#2DD4BF" stop-opacity="0.60"/>
<stop offset="20%" stop-color="#2DD4BF" stop-opacity="0.38"/>
<stop offset="30%" stop-color="#14B8A6" stop-opacity="0.16"/>
<stop offset="37%" stop-color="#0B1116" stop-opacity="0"/>
<stop offset="45%" stop-color="#F43F5E" stop-opacity="0.14"/>
<stop offset="72%" stop-color="#F43F5E" stop-opacity="0.34"/>
<stop offset="100%" stop-color="#F43F5E" stop-opacity="0.52"/>
</linearGradient>
<linearGradient id="expiryGrad" x1="0" y1="0" x2="0" y2="1">
<stop offset="0%" stop-color="#2DD4BF" stop-opacity="0.85"/>
<stop offset="40%" stop-color="#2DD4BF" stop-opacity="0.30"/>
<stop offset="44%" stop-color="#F43F5E" stop-opacity="0.55"/>
<stop offset="100%" stop-color="#F43F5E" stop-opacity="0.55"/>
</linearGradient>
<radialGradient id="spotGlow" cx="50%" cy="50%" r="50%">
<stop offset="0%" stop-color="#2DD4BF" stop-opacity="0.9"/>
<stop offset="100%" stop-color="#2DD4BF" stop-opacity="0"/>
</radialGradient>
<clipPath id="plot"><rect x="52" y="104" width="560" height="342" rx="4"/></clipPath>
</defs>

<rect x="0" y="0" width="680" height="598" fill="#0A0F14"/>

<!-- top bar -->
<rect x="0" y="0" width="680" height="38" fill="#0E1519"/>
<line x1="0" y1="38" x2="680" y2="38" stroke="#1E2A33" stroke-width="1"/>
<path d="M14,25 L24,11 L24,25 Z" fill="#2DD4BF"/>
<text x="30" y="24" font-size="14" font-weight="bold" fill="#2DD4BF">OptBridge</text>
<text x="250" y="24" font-size="10" fill="#5B6B7A">Positions</text>
<text x="316" y="24" font-size="10" font-weight="bold" fill="#E6EEF7">Surface</text>
<text x="372" y="24" font-size="10" fill="#5B6B7A">Analytics</text>
<text x="438" y="24" font-size="10" fill="#5B6B7A">Monte Carlo</text>
<text x="536" y="24" font-size="10" fill="#93A4B3">SPY </text>
<text x="560" y="24" font-size="10" font-weight="bold" fill="#E6EEF7">559.20</text>
<circle cx="612" cy="20" r="3.5" fill="#34D399"/>
<text x="620" y="24" font-size="9.5" fill="#34D399">LIVE 13:47 ET</text>

<!-- position rail (mixed DTE chips) -->
<rect x="14" y="48" width="158" height="28" rx="6" fill="#0F2A2A" stroke="#2DD4BF" stroke-width="1.2"/>
<text x="24" y="65" font-size="10" fill="#E6EEF7">SPY 565C · 24DTE</text>
<text x="164" y="65" font-size="10" font-weight="bold" fill="#2DD4BF" text-anchor="end">+0.6R</text>
<rect x="180" y="48" width="132" height="28" rx="6" fill="#0E1519" stroke="#1E2A33" stroke-width="1"/>
<text x="189" y="65" font-size="10" fill="#93A4B3">QQQ 490C · 4DTE</text>
<text x="304" y="65" font-size="10" font-weight="bold" fill="#2DD4BF" text-anchor="end">+1.2R</text>
<rect x="320" y="48" width="128" height="28" rx="6" fill="#0E1519" stroke="#1E2A33" stroke-width="1"/>
<text x="329" y="65" font-size="10" fill="#93A4B3">AAPL 230C · 0DTE</text>
<text x="440" y="65" font-size="10" fill="#FB7185" text-anchor="end">−0.4R</text>
<text x="460" y="60" font-size="7.5" fill="#5B6B7A">CONSIDERING</text>
<rect x="522" y="48" width="142" height="28" rx="6" fill="#0B1116" stroke="#5B6B7A" stroke-width="1" stroke-dasharray="3 3"/>
<text x="531" y="65" font-size="10" fill="#93A4B3">NVDA 130C · 31DTE</text>
<text x="656" y="65" font-size="9" fill="#5B6B7A" text-anchor="end">sim</text>

<!-- surface title -->
<text x="52" y="94" font-size="12" font-weight="bold" fill="#E6EEF7">SPY 565C  ·  24DTE  ·  exp Jul 26</text>

<!-- Horizon segmented control -->
<text x="410" y="94" font-size="8" fill="#5B6B7A" text-anchor="end">HORIZON</text>
<rect x="416" y="82" width="196" height="16" rx="4" fill="#0B1116" stroke="#1E2A33" stroke-width="1"/>
<line x1="460" y1="83" x2="460" y2="97" stroke="#1E2A33"/>
<line x1="492" y1="83" x2="492" y2="97" stroke="#1E2A33"/>
<line x1="524" y1="83" x2="524" y2="97" stroke="#1E2A33"/>
<rect x="525" y="83" width="86" height="14" rx="3" fill="#0F3D3A" stroke="#2DD4BF" stroke-width="1"/>
<text x="439" y="93" font-size="8.5" fill="#93A4B3" text-anchor="middle">Today</text>
<text x="476" y="93" font-size="8.5" fill="#93A4B3" text-anchor="middle">1W</text>
<text x="508" y="93" font-size="8.5" fill="#93A4B3" text-anchor="middle">2W</text>
<text x="568" y="93" font-size="8.5" font-weight="bold" fill="#2DD4BF" text-anchor="middle">Full →Exp</text>

<!-- plot panel -->
<rect x="52" y="104" width="560" height="342" rx="4" fill="#0B1116" stroke="#1E2A33" stroke-width="1"/>
<g clip-path="url(#plot)">
<rect x="52" y="104" width="560" height="342" fill="url(#valueGrad)"/>
<!-- grid -->
<line x1="52" y1="198" x2="612" y2="198" stroke="#FFFFFF" stroke-opacity="0.05"/>
<line x1="52" y1="285" x2="612" y2="285" stroke="#FFFFFF" stroke-opacity="0.05"/>
<line x1="52" y1="391" x2="612" y2="391" stroke="#FFFFFF" stroke-opacity="0.05"/>
<line x1="192" y1="104" x2="192" y2="446" stroke="#FFFFFF" stroke-opacity="0.04"/>
<line x1="332" y1="104" x2="332" y2="446" stroke="#FFFFFF" stroke-opacity="0.04"/>
<line x1="472" y1="104" x2="472" y2="446" stroke="#FFFFFF" stroke-opacity="0.04"/>

<!-- probability cone (multi-day) -->
<path d="M52,285 L612,120 L612,432 Z" fill="#2DD4BF" fill-opacity="0.05"/>
<path d="M52,285 L612,164 L612,406 Z" fill="#2DD4BF" fill-opacity="0.09"/>
<line x1="52" y1="285" x2="612" y2="120" stroke="#2DD4BF" stroke-opacity="0.35" stroke-width="1" stroke-dasharray="4 3"/>
<line x1="52" y1="285" x2="612" y2="432" stroke="#2DD4BF" stroke-opacity="0.35" stroke-width="1" stroke-dasharray="4 3"/>
<line x1="52" y1="285" x2="612" y2="164" stroke="#2DD4BF" stroke-opacity="0.5" stroke-width="1" stroke-dasharray="4 3"/>
<line x1="52" y1="285" x2="612" y2="406" stroke="#2DD4BF" stroke-opacity="0.5" stroke-width="1" stroke-dasharray="4 3"/>
<text x="586" y="133" font-size="8" fill="#2DD4BF" fill-opacity="0.8">+2σ</text>
<text x="586" y="178" font-size="8" fill="#2DD4BF" fill-opacity="0.9">+1σ</text>
<text x="586" y="428" font-size="8" fill="#2DD4BF" fill-opacity="0.8">−2σ</text>

<!-- iso-R contours (rise toward expiry) -->
<path d="M52,154 C250,148 460,120 612,109" fill="none" stroke="#2DD4BF" stroke-opacity="0.55" stroke-width="1"/>
<path d="M52,214 C250,205 460,190 612,181" fill="none" stroke="#5EEAD4" stroke-opacity="0.5" stroke-width="1"/>
<path d="M52,247 C250,238 460,225 612,217" fill="none" stroke="#E6EEF7" stroke-opacity="0.75" stroke-width="1.4"/>
<path d="M52,325 C250,300 460,268 612,253" fill="none" stroke="#FB7185" stroke-opacity="0.5" stroke-width="1"/>
<text x="57" y="151" font-size="8" fill="#5EEAD4">+3R</text>
<text x="57" y="211" font-size="8" fill="#5EEAD4">+1R</text>
<text x="57" y="244" font-size="8" font-weight="bold" fill="#E6EEF7">B/E</text>
<text x="57" y="322" font-size="8" fill="#FB7185">−1R</text>

<!-- strike + current price lines -->
<line x1="52" y1="253" x2="612" y2="253" stroke="#FBBF24" stroke-opacity="0.6" stroke-width="1" stroke-dasharray="6 4"/>
<text x="608" y="250" font-size="8.5" fill="#FBBF24" text-anchor="end">K 565</text>
<line x1="52" y1="285" x2="612" y2="285" stroke="#FFFFFF" stroke-opacity="0.22" stroke-width="1" stroke-dasharray="2 3"/>

<!-- crosshair + tooltip -->
<line x1="379" y1="104" x2="379" y2="446" stroke="#FFFFFF" stroke-opacity="0.3" stroke-width="1" stroke-dasharray="2 3"/>
<line x1="52" y1="181" x2="612" y2="181" stroke="#FFFFFF" stroke-opacity="0.3" stroke-width="1" stroke-dasharray="2 3"/>
<circle cx="379" cy="181" r="3" fill="#FFFFFF"/>
<rect x="388" y="150" width="158" height="55" rx="5" fill="#0E1519" fill-opacity="0.97" stroke="#2DD4BF" stroke-width="1"/>
<text x="398" y="167" font-size="9" fill="#93A4B3">578.00   @   Jul 16</text>
<text x="398" y="183" font-size="11.5" font-weight="bold" fill="#2DD4BF">+1.0R   ·   +$650</text>
<text x="398" y="198" font-size="8.5" fill="#93A4B3">~41% to reach  (≈ upper 1σ)</text>

<!-- live spot -->
<circle cx="52" cy="285" r="13" fill="url(#spotGlow)"/>
<circle cx="52" cy="285" r="5" fill="#2DD4BF" stroke="#0A0F14" stroke-width="1.4"/>
<rect x="60" y="292" width="74" height="16" rx="3" fill="#0A0F14" fill-opacity="0.85"/>
<text x="66" y="303" font-size="9" font-weight="bold" fill="#2DD4BF">SPY 559.20</text>
</g>

<!-- expiry payoff strip -->
<rect x="624" y="104" width="40" height="342" rx="3" fill="url(#expiryGrad)" stroke="#1E2A33" stroke-width="1"/>
<text x="644" y="100" font-size="7.5" fill="#5B6B7A" text-anchor="middle">EXPIRY</text>
<line x1="624" y1="253" x2="664" y2="253" stroke="#FBBF24" stroke-opacity="0.7" stroke-width="1"/>

<!-- y-axis price labels -->
<text x="47" y="107" font-size="8.5" fill="#5B6B7A" text-anchor="end">592</text>
<text x="47" y="201" font-size="8.5" fill="#5B6B7A" text-anchor="end">575</text>
<text x="47" y="256" font-size="8.5" fill="#5B6B7A" text-anchor="end">565</text>
<text x="47" y="311" font-size="8.5" fill="#5B6B7A" text-anchor="end">555</text>
<text x="47" y="394" font-size="8.5" fill="#5B6B7A" text-anchor="end">540</text>
<text x="47" y="449" font-size="8.5" fill="#5B6B7A" text-anchor="end">530</text>

<!-- x-axis date labels (macro) -->
<text x="52" y="459" font-size="8.5" fill="#5B6B7A">now Jul 2</text>
<text x="192" y="459" font-size="8.5" fill="#5B6B7A" text-anchor="middle">Jul 8</text>
<text x="332" y="459" font-size="8.5" fill="#5B6B7A" text-anchor="middle">Jul 14</text>
<text x="472" y="459" font-size="8.5" fill="#5B6B7A" text-anchor="middle">Jul 20</text>
<text x="612" y="459" font-size="8.5" fill="#5B6B7A" text-anchor="end">Jul 26 exp</text>

<!-- legend -->
<rect x="52" y="467" width="9" height="9" rx="2" fill="#2DD4BF" fill-opacity="0.6"/>
<text x="64" y="475" font-size="8.5" fill="#93A4B3">profit (R)</text>
<rect x="120" y="467" width="9" height="9" rx="2" fill="#F43F5E" fill-opacity="0.55"/>
<text x="132" y="475" font-size="8.5" fill="#93A4B3">loss</text>
<rect x="164" y="467" width="9" height="9" rx="2" fill="#2DD4BF" fill-opacity="0.18"/>
<text x="176" y="475" font-size="8.5" fill="#93A4B3">±1σ/2σ cone (live IV)</text>
<circle cx="316" cy="471" r="4" fill="#2DD4BF"/>
<text x="324" y="475" font-size="8.5" fill="#93A4B3">live spot</text>

<!-- live greeks / risk rail -->
<text x="8" y="497" font-size="8.5" fill="#5B6B7A">LIVE GREEKS &amp; RISK</text>
<g>
<rect x="8" y="502" width="80" height="72" rx="5" fill="#0E1519" stroke="#1E2A33"/>
<text x="48" y="533" font-size="15" font-weight="bold" fill="#2DD4BF" text-anchor="middle">+$390</text>
<text x="48" y="558" font-size="9" fill="#93A4B3" text-anchor="middle">P&amp;L</text>
<rect x="91" y="502" width="80" height="72" rx="5" fill="#0E1519" stroke="#1E2A33"/>
<text x="131" y="533" font-size="15" font-weight="bold" fill="#2DD4BF" text-anchor="middle">+0.6R</text>
<text x="131" y="558" font-size="9" fill="#93A4B3" text-anchor="middle">R multiple</text>
<rect x="174" y="502" width="80" height="72" rx="5" fill="#0E1519" stroke="#1E2A33"/>
<text x="214" y="533" font-size="15" font-weight="bold" fill="#FBBF24" text-anchor="middle">44%</text>
<text x="214" y="558" font-size="9" fill="#93A4B3" text-anchor="middle">POP</text>
<rect x="257" y="502" width="80" height="72" rx="5" fill="#0E1519" stroke="#1E2A33"/>
<text x="297" y="533" font-size="15" font-weight="bold" fill="#E6EEF7" text-anchor="middle">0.38</text>
<text x="297" y="558" font-size="9" fill="#93A4B3" text-anchor="middle">Delta</text>
<rect x="340" y="502" width="80" height="72" rx="5" fill="#0E1519" stroke="#1E2A33"/>
<text x="380" y="533" font-size="15" font-weight="bold" fill="#FB7185" text-anchor="middle">−$14</text>
<text x="380" y="558" font-size="9" fill="#93A4B3" text-anchor="middle">Theta / day</text>
<rect x="423" y="502" width="80" height="72" rx="5" fill="#0E1519" stroke="#1E2A33"/>
<text x="463" y="533" font-size="15" font-weight="bold" fill="#E6EEF7" text-anchor="middle">$38</text>
<text x="463" y="558" font-size="9" fill="#93A4B3" text-anchor="middle">Vega</text>
<rect x="506" y="502" width="80" height="72" rx="5" fill="#0E1519" stroke="#1E2A33"/>
<text x="546" y="533" font-size="15" font-weight="bold" fill="#E6EEF7" text-anchor="middle">12.0%</text>
<text x="546" y="558" font-size="9" fill="#93A4B3" text-anchor="middle">IV now</text>
<rect x="589" y="502" width="80" height="72" rx="5" fill="#0E1519" stroke="#1E2A33"/>
<text x="629" y="533" font-size="15" font-weight="bold" fill="#E6EEF7" text-anchor="middle">24d</text>
<text x="629" y="558" font-size="9" fill="#93A4B3" text-anchor="middle">to expiry</text>
</g>
</svg>